<?xml version="1.0" standalone="no"?>
<!DOCTYPE svg PUBLIC "-//W3C//DTD SVG 1.1//EN" "http://www.w3.org/Graphics/SVG/1.1/DTD/svg11.dtd" >
<svg xmlns="http://www.w3.org/2000/svg">
<metadata></metadata>
<defs>
<font id="united_italic_condheavy" horiz-adv-x="880" >
<font-face units-per-em="2048" ascent="1556" descent="-492" />
<missing-glyph horiz-adv-x="317" />
<glyph horiz-adv-x="0" />
<glyph horiz-adv-x="682" />
<glyph unicode=" "  horiz-adv-x="317" />
<glyph unicode="&#x09;" horiz-adv-x="317" />
<glyph unicode="&#xa0;" horiz-adv-x="317" />
<glyph unicode="!" horiz-adv-x="456" d="M4 0l45 266h250l-47 -266h-248zM72 391l180 1022h250l-180 -1022h-250z" />
<glyph unicode="&#x22;" horiz-adv-x="555" d="M102 893l91 520h184l-92 -520h-183zM379 893l90 520h186l-90 -520h-186z" />
<glyph unicode="#" horiz-adv-x="864" d="M49 567l31 174h123l49 281h-123l31 174h123l39 217h184l-39 -217h145l39 217h185l-39 -217h125l-31 -174h-125l-49 -281h125l-31 -174h-125l-37 -217h-184l37 217h-146l-39 -217h-184l39 217h-123zM387 741h145l50 281h-146z" />
<glyph unicode="$" horiz-adv-x="815" d="M-14 203l43 235h250l-25 -149l39 -39h125l41 41l45 258l-31 31l-254 67l-129 129l78 432l164 164h82l35 195h221l-35 -195h65l164 -164l-41 -233h-248l25 147l-41 41h-117l-41 -41l-43 -245l29 -29l254 -68l129 -131l-78 -444l-164 -164h-86l-32 -195h-222l35 195h-76z " />
<glyph unicode="%" horiz-adv-x="1275" d="M92 854l78 434l123 125h254l125 -125l-78 -434l-125 -125h-252zM158 0l846 1413h151l-848 -1413h-149zM276 901l35 -37h80l37 37l61 346l-34 35h-80l-37 -35zM641 125l78 434l125 125h252l125 -125l-76 -434l-125 -125h-254zM825 170l35 -35h80l37 37l61 346l-34 35h-80 l-37 -37z" />
<glyph unicode="&#x26;" horiz-adv-x="899" d="M0 164l72 401l159 162l-112 113l74 409l163 164h389l164 -164l-39 -215h-247l24 137l-43 41h-137l-41 -41l-53 -307l41 -41h508l-35 -209h-88l-78 -450l-164 -164h-393zM262 242l41 -41h141l41 43l66 370h-178l-54 -55z" />
<glyph unicode="'" horiz-adv-x="278" d="M102 893l91 520h186l-90 -520h-187z" />
<glyph unicode="(" horiz-adv-x="542" d="M18 57l228 1295l172 172h260l-37 -209h-113l-49 -49l-196 -1121l47 -49h96l-37 -209h-201z" />
<glyph unicode=")" horiz-adv-x="542" d="M-82 -113l37 209h111l49 49l198 1121l-49 49h-94l37 209h201l170 -170l-230 -1295l-170 -172h-260z" />
<glyph unicode="*" horiz-adv-x="585" d="M100 1139l90 170l144 -92v196h194l-69 -196l176 92l29 -170l-193 -35l115 -139l-164 -105l-55 174l-121 -174l-125 105l160 137z" />
<glyph unicode="+" horiz-adv-x="655" d="M27 612l34 193h207l43 246h201l-43 -246h207l-33 -193h-207l-43 -247h-203l43 247h-206z" />
<glyph unicode="," horiz-adv-x="352" d="M-80 -213l17 111h75l17 16l14 86h-88l51 283h238l-70 -404l-92 -92h-162z" />
<glyph unicode="-" horiz-adv-x="456" d="M41 600l39 215h385l-39 -215h-385z" />
<glyph unicode="." horiz-adv-x="354" d="M-45 0l51 283h238l-49 -283h-240z" />
<glyph unicode="/" horiz-adv-x="618" d="M-90 -133l629 1677h225l-631 -1677h-223z" />
<glyph unicode="0" d="M12 164l191 1085l164 164h385l163 -164l-190 -1085l-164 -164h-385zM274 250l43 -41h132l40 41l162 913l-43 41h-131l-41 -41z" />
<glyph unicode="1" horiz-adv-x="684" d="M-37 0l39 209h170l176 995h-170l35 209h422l-213 -1204h166l-37 -209h-588z" />
<glyph unicode="2" horiz-adv-x="829" d="M-14 0l110 629l148 147h258l41 41l59 346l-41 41h-98l-41 -41l-33 -174h-248l45 260l164 164h352l162 -164l-96 -559l-141 -143h-258l-45 -43l-50 -287h406l-37 -217h-657z" />
<glyph unicode="3" horiz-adv-x="856" d="M-23 164l48 264h249l-34 -184l43 -43h145l41 43l59 323l-47 47h-266l37 209h276l54 56l51 292l-41 41h-146l-40 -41l-33 -186h-248l47 264l164 164h395l164 -164l-68 -385l-161 -162l112 -112l-76 -426l-161 -164h-400z" />
<glyph unicode="4" horiz-adv-x="884" d="M-4 381l31 178l301 854h225l-264 -819h225l145 819h248l-145 -819h86l-37 -213h-86l-68 -381h-247l67 381h-481z" />
<glyph unicode="5" horiz-adv-x="841" d="M-2 164l49 268h248l-33 -182l41 -41h119l41 41l80 446l-35 37h-102l-97 -98h-227l137 778h682l-41 -223h-432l-59 -342l94 94h221l129 -129l-115 -649l-163 -164h-373z" />
<glyph unicode="6" horiz-adv-x="864" d="M12 164l191 1085l164 164h381l163 -164l-45 -243h-248l27 157l-41 41h-127l-41 -41l-67 -381l98 101h227l131 -131l-104 -588l-164 -164h-381zM274 250l43 -41h127l43 41l68 387l-37 37h-108l-74 -74z" />
<glyph unicode="7" horiz-adv-x="710" d="M94 0l92 522l340 668h-411l39 223h677l-32 -182l-365 -713l-92 -518h-248z" />
<glyph unicode="8" horiz-adv-x="876" d="M0 164l72 401l161 162l-112 113l72 409l163 164h396l163 -164l-71 -385l-162 -162l115 -112l-74 -426l-164 -164h-395zM262 242l41 -41h141l43 43l58 323l-47 47h-125l-54 -55zM373 868l47 -45h125l55 54l51 294l-41 41h-143l-41 -41z" />
<glyph unicode="9" horiz-adv-x="866" d="M0 164l45 256h250l-31 -170l43 -41h127l43 41l70 397l-98 -98h-228l-129 131l101 569l163 164h381l164 -164l-192 -1085l-164 -164h-381zM360 793l37 -35h109l72 71l59 334l-41 41h-129l-41 -41z" />
<glyph unicode=":" horiz-adv-x="376" d="M-33 0l51 283h238l-49 -283h-240zM70 575l49 283h239l-51 -283h-237z" />
<glyph unicode=";" horiz-adv-x="376" d="M-70 -213l19 111h78l18 16l14 86h-92l51 283h238l-72 -404l-92 -92h-162zM70 575l49 283h239l-51 -283h-237z" />
<glyph unicode="&#x3c;" horiz-adv-x="696" d="M43 586l43 243l649 287l-41 -239l-438 -181l375 -178l-37 -217z" />
<glyph unicode="=" horiz-adv-x="649" d="M31 416l35 209h532l-37 -209h-530zM94 778l35 207h533l-37 -207h-531z" />
<glyph unicode="&#x3e;" horiz-adv-x="696" d="M14 299l43 238l439 182l-375 178l37 217l549 -285l-41 -243z" />
<glyph unicode="?" horiz-adv-x="763" d="M96 989l47 260l164 164h369l164 -164l-90 -512l-142 -141h-119l-28 -29l-33 -178h-248l53 305l132 131h120l39 39l54 299l-43 41h-117l-41 -41l-31 -174h-250zM111 0l47 266h248l-46 -266h-249z" />
<glyph unicode="@" horiz-adv-x="1515" d="M-37 -43l197 1130l262 263h850l260 -263l-164 -937l-149 -150h-306l-116 115l-115 -115h-193l-141 141l133 754l140 141h213l112 -112l53 112h158l-149 -850l10 -8h90l45 45l139 807l-149 152h-615l-149 -152l-178 -1014l151 -151h639l-30 -170h-738zM596 207l39 -37h51 l100 100l91 525l-70 71h-64l-36 -37z" />
<glyph unicode="A" horiz-adv-x="843" d="M-82 0l461 1413h371l-27 -1413h-248l14 328h-233l-98 -328h-240zM319 539h181l35 706z" />
<glyph unicode="B" horiz-adv-x="888" d="M-6 0l250 1413h520l164 -164l-68 -383l-162 -161l113 -113l-76 -428l-164 -164h-577zM276 201h183l43 43l57 329l-41 43h-168zM387 825h174l51 49l52 297l-41 41h-166z" />
<glyph unicode="C" horiz-adv-x="841" d="M12 164l191 1085l164 164h366l164 -164l-53 -301h-250l39 215l-41 41h-113l-41 -41l-164 -913l43 -41h113l41 41l39 217h248l-53 -303l-164 -164h-365z" />
<glyph unicode="D" horiz-adv-x="884" d="M-6 0l250 1413h512l164 -164l-193 -1085l-164 -164h-569zM279 209h174l41 41l161 913l-41 41h-161z" />
<glyph unicode="E" horiz-adv-x="753" d="M-6 0l250 1413h594l-39 -217h-346l-66 -369h315l-38 -219h-316l-67 -391h352l-39 -217h-600z" />
<glyph unicode="F" horiz-adv-x="716" d="M-6 0l250 1413h579l-39 -217h-331l-70 -397h299l-37 -215h-301l-102 -584h-248z" />
<glyph unicode="G" horiz-adv-x="860" d="M12 164l191 1085l164 164h376l164 -164l-49 -264h-248l31 178l-41 41h-123l-41 -41l-162 -913l43 -41h121l43 41l54 305h-107l37 207h356l-106 -598l-164 -164h-375z" />
<glyph unicode="H" horiz-adv-x="911" d="M-6 0l250 1413h248l-107 -596h223l107 596h248l-250 -1413h-248l98 563h-223l-98 -563h-248z" />
<glyph unicode="I" horiz-adv-x="647" d="M-47 0l35 201h141l178 1011h-139l35 201h536l-34 -201h-148l-178 -1011h147l-37 -201h-536z" />
<glyph unicode="J" horiz-adv-x="567" d="M-82 0l39 217h188l41 39l203 1157h252l-221 -1249l-164 -164h-338z" />
<glyph unicode="K" horiz-adv-x="892" d="M-8 0l252 1413h248l-125 -704l358 704h262l-330 -594l115 -819h-252l-65 602l-150 -237l-63 -365h-250z" />
<glyph unicode="L" horiz-adv-x="673" d="M-6 0l250 1413h248l-211 -1196h309l-39 -217h-557z" />
<glyph unicode="M" horiz-adv-x="1277" d="M-6 0l250 1413h381l-47 -1161l366 1161h385l-250 -1413h-233l217 1235l-399 -1235h-283l33 1235l-217 -1235h-203z" />
<glyph unicode="N" horiz-adv-x="929" d="M-6 0l250 1413h217l147 -866l158 866h215l-250 -1413h-209l-151 893l-162 -893h-215z" />
<glyph unicode="O" d="M12 164l191 1085l164 164h385l163 -164l-190 -1085l-164 -164h-385zM274 250l43 -41h132l40 41l162 913l-43 41h-131l-41 -41z" />
<glyph unicode="P" horiz-adv-x="862" d="M-6 0l250 1413h518l164 -164l-103 -571l-164 -162h-327l-90 -516h-248zM367 711h180l41 41l76 426l-43 41h-164z" />
<glyph unicode="Q" d="M12 164l191 1085l164 164h385l163 -164l-190 -1085l-164 -164l-8 -41l102 -102l-155 -156l-174 176l20 123h-170zM274 250l43 -41h132l40 41l162 913l-43 41h-131l-41 -41z" />
<glyph unicode="R" horiz-adv-x="888" d="M-6 0l248 1413h522l164 -164l-84 -475l-166 -166l61 -407h74l-35 -201h-248l-81 586h-105l-102 -586h-248zM379 778h176l47 47l62 353l-41 41h-166z" />
<glyph unicode="S" horiz-adv-x="813" d="M-14 162l47 262h248l-31 -176l39 -39h114l43 41l56 303l-29 29l-250 67l-127 127l84 473l164 164h358l164 -164l-47 -260h-250l33 174l-43 41h-104l-41 -41l-52 -286l29 -27l248 -70l127 -125l-86 -491l-164 -164h-369z" />
<glyph unicode="T" horiz-adv-x="770" d="M139 1188l41 225h707l-41 -225h-225l-209 -1188h-248l211 1188h-236z" />
<glyph unicode="U" horiz-adv-x="849" d="M4 164l221 1249h248l-205 -1157l41 -39h123l39 39l205 1157h250l-221 -1249l-164 -164h-375z" />
<glyph unicode="V" horiz-adv-x="786" d="M113 0l41 1413h252l-68 -1192l338 1192h246l-445 -1413h-364z" />
<glyph unicode="W" horiz-adv-x="1247" d="M96 0l84 1413h242l-105 -1137l308 1137h313l-66 -1137l271 1137h215l-389 -1413h-301l59 1141l-313 -1141h-318z" />
<glyph unicode="X" horiz-adv-x="811" d="M-92 0l325 739l-59 674h256l19 -571l231 571h252l-311 -680l84 -733h-250l-45 596l-242 -596h-260z" />
<glyph unicode="Y" horiz-adv-x="837" d="M156 1413h250l45 -678l288 678h240l-461 -981l-78 -432h-247l75 432z" />
<glyph unicode="Z" horiz-adv-x="727" d="M-55 0l35 190l538 1006h-358l39 217h630l-32 -190l-539 -1006h365l-39 -217h-639z" />
<glyph unicode="[" horiz-adv-x="536" d="M-18 -113l288 1637h400l-35 -209h-154l-213 -1219h152l-37 -209h-401z" />
<glyph unicode="\" horiz-adv-x="540" d="M162 1544h217l39 -1677h-217z" />
<glyph unicode="]" horiz-adv-x="536" d="M-82 -113l35 209h153l213 1219h-151l37 209h401l-289 -1637h-399z" />
<glyph unicode="^" horiz-adv-x="733" d="M45 741l326 672h274l90 -672h-205l-45 523l-227 -523h-213z" />
<glyph unicode="_" horiz-adv-x="716" d="M-145 -225l28 159h725l-28 -159h-725z" />
<glyph unicode="`" horiz-adv-x="688" d="M283 1247l22 131h94l140 -137l-23 -131h-94z" />
<glyph unicode="a" horiz-adv-x="808" d="M-6 141l131 754l141 141h213l111 -112l53 112h158l-150 -856l4 -4h58l-33 -176h-135l-111 109l-108 -109h-193zM240 207l39 -37h51l98 98l94 525l-71 73h-62l-39 -37z" />
<glyph unicode="b" horiz-adv-x="804" d="M-29 0l250 1413h238l-88 -498l118 121h152l141 -141l-133 -754l-141 -141h-211l-117 117l-41 -117h-168zM250 244l76 -74h61l37 37l108 606l-38 39h-39l-117 -115z" />
<glyph unicode="c" horiz-adv-x="761" d="M-6 141l133 754l139 141h352l140 -141l-39 -219h-236l27 153l-39 37h-82l-39 -37l-108 -622l39 -37h81l37 37l27 153h238l-39 -219l-140 -141h-352z" />
<glyph unicode="d" horiz-adv-x="808" d="M-6 141l131 754l141 141h185l96 -98l84 475h237l-217 -1233l4 -4h58l-33 -176h-135l-111 109l-108 -109h-193zM240 207l39 -37h51l100 98l90 516l-80 82h-51l-39 -37z" />
<glyph unicode="e" horiz-adv-x="782" d="M-6 141l133 754l141 141h361l139 -141l-78 -449h-407l-41 -239l39 -37h92l39 37l18 106h236l-31 -172l-139 -141h-363zM311 606h170l39 223l-39 37h-92l-39 -37z" />
<glyph unicode="f" horiz-adv-x="561" d="M23 0l149 846h-102l34 190h101l43 236l143 141h309l-32 -190h-168l-29 -29l-29 -158h174l-32 -190h-174l-150 -846h-237z" />
<glyph unicode="g" horiz-adv-x="794" d="M-66 -211l25 148h240l-15 -80l35 -35h98l39 37l54 305l-121 -121h-152l-139 139l125 713l141 141h213l111 -114l55 114h158l-221 -1247l-138 -137h-370zM244 252l39 -37h28l131 129l78 451l-71 71h-62l-37 -37z" />
<glyph unicode="h" horiz-adv-x="804" d="M-29 0l250 1413h238l-88 -500l123 123h120l152 -153l-123 -703l4 -4h58l-31 -176h-187l-94 96l121 701l-35 34h-35l-108 -108l-127 -723h-238z" />
<glyph unicode="i" horiz-adv-x="425" d="M-2 94l166 942h237l-153 -856l6 -4h55l-33 -176h-184zM188 1176l41 229h238l-41 -229h-238z" />
<glyph unicode="j" horiz-adv-x="397" d="M-250 -348l33 190h131l39 39l205 1155h235l-219 -1243l-141 -141h-283zM182 1176l41 229h236l-39 -229h-238z" />
<glyph unicode="k" horiz-adv-x="778" d="M-29 0l250 1413h236l-152 -860l275 483h245l-256 -403l103 -633h-232l-57 436l-135 -207l-39 -229h-238z" />
<glyph unicode="l" horiz-adv-x="428" d="M-2 94l233 1319h236l-217 -1233l4 -4h57l-32 -176h-187z" />
<glyph unicode="m" horiz-adv-x="1191" d="M-29 0l185 1036h163l-6 -141l142 141h151l117 -116l117 116h161l152 -153l-123 -703l4 -4h58l-31 -176h-187l-94 96l121 701l-35 34h-35l-98 -96l-129 -735h-237l143 797l-35 34h-35l-104 -104l-127 -727h-238z" />
<glyph unicode="n" horiz-adv-x="804" d="M-29 0l185 1036h161l-6 -143l144 143h159l152 -153l-123 -703l4 -4h58l-31 -176h-187l-94 96l121 701l-35 34h-39l-104 -104l-127 -727h-238z" />
<glyph unicode="o" horiz-adv-x="802" d="M-6 141l133 754l139 141h373l141 -141l-133 -754l-141 -141h-373zM240 207l39 -37h106l37 37l108 622l-36 37h-107l-39 -37z" />
<glyph unicode="p" horiz-adv-x="804" d="M-88 -348l244 1384h163l-6 -141l142 141h186l141 -141l-133 -754l-139 -141h-197l-88 88l-75 -436h-238zM254 250l80 -80h53l37 37l108 606l-36 35h-41l-117 -115z" />
<glyph unicode="q" horiz-adv-x="808" d="M-4 141l135 754l139 141h213l113 -112l53 112h158l-244 -1384h-237l82 467l-119 -119h-152zM244 211l37 -39h34l125 125l88 498l-71 71h-62l-39 -37z" />
<glyph unicode="r" horiz-adv-x="555" d="M-29 0l185 1036h161l-6 -143l144 143h155l-37 -207h-124l-115 -114l-125 -715h-238z" />
<glyph unicode="s" horiz-adv-x="753" d="M-25 141l31 183h238l-21 -117l37 -37h88l39 37l31 176l-19 18l-225 62l-113 112l56 320l141 141h340l141 -141l-32 -180h-236l18 114l-36 37h-72l-37 -37l-31 -174l19 -18l223 -62l113 -112l-58 -322l-141 -141h-352z" />
<glyph unicode="t" horiz-adv-x="589" d="M39 141l123 705h-105l33 190h107l43 246h237l-43 -246h195l-35 -190h-195l-106 -610l37 -37h157l-34 -199h-273z" />
<glyph unicode="u" horiz-adv-x="786" d="M-6 152l156 884h235l-141 -796l37 -35h32l107 104l127 727h235l-147 -856l4 -4h57l-30 -176h-138l-116 115l-115 -115h-152z" />
<glyph unicode="v" horiz-adv-x="741" d="M90 0v1036h240l-37 -878l280 878h224l-353 -1036h-354z" />
<glyph unicode="w" horiz-adv-x="1228" d="M84 0l35 1036h225l-59 -866l260 866h309l-14 -866l215 866h202l-288 -1036h-314l9 838l-248 -838h-332z" />
<glyph unicode="x" horiz-adv-x="745" d="M-92 0l280 530l-86 506h240l43 -411l182 411h238l-260 -487l90 -549h-232l-53 412l-190 -412h-252z" />
<glyph unicode="y" horiz-adv-x="741" d="M-104 -348l34 190h207l49 49l39 109h-143l8 1036h240l-39 -886l282 886h224l-424 -1241l-144 -143h-333z" />
<glyph unicode="z" horiz-adv-x="634" d="M-80 0l29 160l430 688h-299l33 188h563l-27 -159l-430 -691h313l-32 -186h-580z" />
<glyph unicode="{" horiz-adv-x="573" d="M16 612l39 215h88l50 50l83 475l170 172h261l-37 -209h-111l-49 -49l-72 -400l-147 -149l104 -103l-84 -469l49 -49h95l-37 -209h-201l-170 170l92 516l-41 39h-82z" />
<glyph unicode="|" horiz-adv-x="454" d="M-10 -133l297 1677h223l-295 -1677h-225z" />
<glyph unicode="}" horiz-adv-x="573" d="M-82 -113l35 209h113l49 49l75 430l148 148l-105 102l78 441l-47 49h-96l37 209h203l167 -170l-86 -486l39 -41h84l-39 -215h-88l-49 -47l-88 -506l-172 -172h-258z" />
<glyph unicode="~" horiz-adv-x="780" d="M129 1085l37 201l125 127h172l170 -172h18l29 29l25 143h172l-35 -201l-127 -127h-170l-172 172h-17l-28 -28l-25 -144h-174z" />
<glyph unicode="&#xa1;" horiz-adv-x="456" d="M4 0l180 1022h250l-182 -1022h-248zM207 1147l47 266h248l-47 -266h-248z" />
<glyph unicode="&#xa2;" horiz-adv-x="776" d="M0 315l139 785l164 164h76l29 159h229l-29 -159h68l164 -164l-45 -264h-250l30 178l-40 41h-121l-41 -41l-109 -613l41 -41h119l43 41l31 179h250l-48 -265l-163 -163h-80l-29 -162h-229l28 162h-63z" />
<glyph unicode="&#xa3;" horiz-adv-x="843" d="M-53 0l39 221l106 107l43 250h-90l39 215h90l80 456l164 164h334l163 -164l-49 -276h-248l33 190l-41 41h-80l-43 -41l-65 -370h280l-36 -215h-283l-47 -273l-88 -88h483l-39 -217h-745z" />
<glyph unicode="&#xa5;" horiz-adv-x="837" d="M-6 256l24 133h242l8 43l-6 55h-229l24 131h189l-88 795h256l37 -665l280 665h246l-373 -795h189l-25 -131h-225l-25 -55l-8 -43h242l-25 -133h-242l-45 -256h-247l45 256h-244z" />
<glyph unicode="&#xa7;" horiz-adv-x="827" d="M-47 -33l45 254h250l-31 -168l39 -39h127l41 41l53 293h-350l-92 90l20 105h705l-101 -574l-163 -164h-381zM78 676l102 573l164 164h377l162 -164l-43 -252h-250l28 166l-40 41h-121l-43 -41l-52 -293h351l90 -88l-21 -106h-704z" />
<glyph unicode="&#xa8;" horiz-adv-x="688" d="M186 1139l35 194h172l-35 -194h-172zM469 1139l35 194h172l-35 -194h-172z" />
<glyph unicode="&#xa9;" horiz-adv-x="1275" d="M12 213l174 987l213 213h699l213 -213l-174 -987l-213 -213h-701zM223 274l107 -104h510l106 104l152 865l-107 106h-510l-106 -106zM360 373l119 669l99 99h284l101 -99l-41 -229h-183l27 160l-23 22h-71l-23 -22l-94 -533l23 -22h73l21 22l28 162h183l-39 -229 l-101 -99h-282z" />
<glyph unicode="&#xaa;" horiz-adv-x="610" d="M90 821l84 477l115 115h178l72 -72l34 72h121l-100 -569l6 -4h35l-25 -133h-96l-74 73l-73 -73h-162zM272 870l31 -30h62l65 63l59 332l-45 45h-71l-35 -33z" />
<glyph unicode="&#xab;" horiz-adv-x="712" d="M35 713l264 411h205l-273 -419l119 -404h-194zM334 713l264 411h203l-273 -419l119 -404h-194z" />
<glyph unicode="&#xad;" horiz-adv-x="456" d="M41 600l39 215h385l-39 -215h-385z" />
<glyph unicode="&#xae;" horiz-adv-x="813" d="M113 727l98 555l131 131h375l131 -131l-96 -555l-134 -133h-374zM215 756l74 -76h295l78 80l86 491l-76 76h-293l-78 -78zM297 766l84 475h209l67 -67l-26 -152l-62 -61l19 -127h28l-14 -68h-98l-21 180h-63l-31 -180h-92zM434 1022h86l23 22l18 101l-22 22h-78z" />
<glyph unicode="&#xaf;" horiz-adv-x="688" d="M219 1161l25 150h405l-24 -150h-406z" />
<glyph unicode="&#xb0;" horiz-adv-x="489" d="M106 1006l54 313l94 94h246l94 -94l-53 -313l-95 -95h-245zM248 1057l28 -31h109l29 31l39 213l-31 28h-107l-30 -28z" />
<glyph unicode="&#xb2;" horiz-adv-x="593" d="M70 670l55 311l113 102h198l25 23l24 137l-30 31h-72l-31 -31l-12 -76h-182l22 133l113 113h270l113 -113l-43 -253l-113 -101h-196l-27 -26l-18 -103h311l-27 -147h-493z" />
<glyph unicode="&#xb3;" horiz-adv-x="604" d="M66 782l20 117h180l-10 -65l31 -31h98l31 33l22 116l-28 29h-164l20 123h170l35 33l18 112l-30 31h-99l-32 -33l-11 -65h-182l23 118l112 113h297l113 -113l-29 -163l-98 -101l70 -69l-33 -185l-113 -112h-299z" />
<glyph unicode="&#xb4;" horiz-adv-x="688" d="M336 1110l24 131l138 137h123l-25 -131l-137 -137h-123z" />
<glyph unicode="&#xb6;" horiz-adv-x="1232" d="M35 319l164 930l163 164h924l-256 -1444l-164 -164h-483l37 205h336l39 41l204 1161h-122l-187 -1054h-493zM297 399l43 -41h137l154 861h-156l-41 -41z" />
<glyph unicode="&#xb7;" horiz-adv-x="376" d="M70 575l49 283h239l-51 -283h-237z" />
<glyph unicode="&#xb8;" horiz-adv-x="688" d="M90 -346l19 100h153l12 10l11 66l-11 12h-73l-35 35l22 123h121l-12 -68h70l69 -67l-26 -144l-66 -67h-254z" />
<glyph unicode="&#xb9;" horiz-adv-x="491" d="M51 670l25 145h123l80 453h-121l24 145h305l-106 -598h119l-27 -145h-422z" />
<glyph unicode="&#xba;" horiz-adv-x="610" d="M90 821l84 477l115 115h272l117 -115l-84 -477l-117 -114h-272zM272 872l35 -32h86l35 32l66 375l-33 33h-88l-35 -33z" />
<glyph unicode="&#xbb;" horiz-adv-x="712" d="M-35 301l271 422l-119 401h194l121 -409l-264 -414h-203zM262 301l273 422l-119 401h194l119 -409l-264 -414h-203z" />
<glyph unicode="&#xbc;" horiz-adv-x="1331" d="M51 670l25 145h123l80 453h-121l24 145h305l-106 -598h119l-27 -145h-422zM156 0l845 1413h152l-846 -1413h-151zM653 178l19 103l182 464h164l-148 -428h148l78 428h182l-78 -428h55l-24 -139h-55l-31 -176h-182l30 176h-340z" />
<glyph unicode="&#xbd;" horiz-adv-x="1296" d="M51 670l25 145h123l80 453h-121l24 145h305l-106 -598h119l-27 -145h-422zM156 0l845 1413h152l-846 -1413h-151zM651 2l56 311l112 103h199l24 22l25 137l-31 31h-71l-31 -31l-12 -75h-183l23 133l112 112h271l112 -112l-43 -254l-112 -100h-197l-26 -27l-19 -102h311 l-26 -148h-494z" />
<glyph unicode="&#xbe;" horiz-adv-x="1390" d="M66 782l20 117h180l-10 -65l31 -31h98l31 33l22 116l-28 29h-164l20 123h170l35 33l18 112l-30 31h-99l-32 -33l-11 -65h-182l23 118l112 113h297l113 -113l-29 -163l-98 -101l70 -69l-33 -185l-113 -112h-299zM217 0l846 1413h151l-845 -1413h-152zM715 178l18 103 l182 464h164l-147 -428h147l78 428h182l-77 -428h55l-25 -139h-55l-31 -176h-182l31 176h-340z" />
<glyph unicode="&#xbf;" horiz-adv-x="763" d="M-35 164l88 512l142 141h120l27 29l35 178h248l-56 -305l-131 -131h-119l-40 -39l-52 -299l41 -41h117l43 41l31 174h248l-45 -260l-164 -164h-369zM397 1147l47 266h248l-45 -266h-250z" />
<glyph unicode="&#xc0;" horiz-adv-x="843" d="M-82 0l461 1413h371l-27 -1413h-248l14 328h-233l-98 -328h-240zM319 539h181l35 706zM442 1634l23 131h94l139 -137l-22 -131h-94z" />
<glyph unicode="&#xc1;" horiz-adv-x="843" d="M-82 0l461 1413h371l-27 -1413h-248l14 328h-233l-98 -328h-240zM319 539h181l35 706zM485 1497l25 131l137 137h123l-25 -131l-137 -137h-123z" />
<glyph unicode="&#xc2;" horiz-adv-x="843" d="M-82 0l461 1413h371l-27 -1413h-248l14 328h-233l-98 -328h-240zM319 539h181l35 706zM367 1505l20 115l131 131h176l131 -131l-20 -115h-74l-127 129h-6l-129 -129h-102z" />
<glyph unicode="&#xc3;" horiz-adv-x="843" d="M-82 0l461 1413h371l-27 -1413h-248l14 328h-233l-98 -328h-240zM319 539h181l35 706zM336 1513l24 142l86 84h132l96 -97h24l19 19l12 78h133l-24 -140l-86 -86h-129l-99 99h-24l-19 -19l-12 -80h-133z" />
<glyph unicode="&#xc4;" horiz-adv-x="843" d="M-82 0l461 1413h371l-27 -1413h-248l14 328h-233l-98 -328h-240zM319 539h181l35 706zM352 1526l35 194h172l-35 -194h-172zM635 1526l35 194h172l-35 -194h-172z" />
<glyph unicode="&#xc5;" horiz-adv-x="843" d="M-82 0l461 1413h371l-27 -1413h-248l14 328h-233l-98 -328h-240zM319 539h181l35 706zM414 1561l24 139l72 72h201l71 -72l-24 -139l-72 -72h-201zM516 1587l21 -20h104l21 20l16 86l-21 23h-102l-23 -23z" />
<glyph unicode="&#xc6;" horiz-adv-x="1124" d="M-82 0l457 1413h833l-39 -217h-430l-6 -369h340l-39 -219h-307l-8 -391h285l-37 -217h-500l16 328h-227l-98 -328h-240zM319 539h175l36 706z" />
<glyph unicode="&#xc7;" horiz-adv-x="841" d="M12 164l191 1085l164 164h366l164 -164l-53 -301h-250l39 215l-41 41h-113l-41 -41l-164 -913l43 -41h113l41 41l39 217h248l-53 -303l-164 -164h-162l-12 -68h69l70 -67l-27 -144l-65 -67h-254l18 100h154l12 10l10 66l-10 12h-74l-34 35l22 123h-82z" />
<glyph unicode="&#xc8;" horiz-adv-x="753" d="M-6 0l250 1413h594l-39 -217h-346l-66 -369h315l-38 -219h-316l-67 -391h352l-39 -217h-600zM410 1634l22 131h94l140 -137l-23 -131h-94z" />
<glyph unicode="&#xc9;" horiz-adv-x="753" d="M-6 0l250 1413h594l-39 -217h-346l-66 -369h315l-38 -219h-316l-67 -391h352l-39 -217h-600zM453 1497l24 131l137 137h123l-24 -131l-138 -137h-122z" />
<glyph unicode="&#xca;" horiz-adv-x="753" d="M-6 0l250 1413h594l-39 -217h-346l-66 -369h315l-38 -219h-316l-67 -391h352l-39 -217h-600zM334 1505l20 115l131 131h177l131 -131l-21 -115h-74l-127 129h-6l-129 -129h-102z" />
<glyph unicode="&#xcb;" horiz-adv-x="753" d="M-6 0l250 1413h594l-39 -217h-346l-66 -369h315l-38 -219h-316l-67 -391h352l-39 -217h-600zM322 1526l34 194h172l-34 -194h-172zM604 1526l35 194h172l-35 -194h-172z" />
<glyph unicode="&#xcc;" horiz-adv-x="647" d="M-47 0l35 201h141l178 1011h-139l35 201h536l-34 -201h-148l-178 -1011h147l-37 -201h-536zM350 1634l23 131h94l139 -137l-22 -131h-95z" />
<glyph unicode="&#xcd;" horiz-adv-x="647" d="M-47 0l35 201h141l178 1011h-139l35 201h536l-34 -201h-148l-178 -1011h147l-37 -201h-536zM393 1497l25 131l137 137h123l-25 -131l-137 -137h-123z" />
<glyph unicode="&#xce;" horiz-adv-x="647" d="M-47 0l35 201h141l178 1011h-139l35 201h536l-34 -201h-148l-178 -1011h147l-37 -201h-536zM276 1505l21 115l131 131h176l131 -131l-20 -115h-74l-127 129h-6l-129 -129h-103z" />
<glyph unicode="&#xcf;" horiz-adv-x="647" d="M-47 0l35 201h141l178 1011h-139l35 201h536l-34 -201h-148l-178 -1011h147l-37 -201h-536zM262 1526l35 194h172l-35 -194h-172zM545 1526l35 194h172l-35 -194h-172z" />
<glyph unicode="&#xd0;" horiz-adv-x="884" d="M-6 0l106 600h-82l37 211h82l107 602h512l164 -164l-193 -1085l-164 -164h-569zM279 209h174l41 41l159 913l-41 41h-159l-70 -393h119l-35 -211h-121z" />
<glyph unicode="&#xd1;" horiz-adv-x="929" d="M-6 0l250 1413h217l147 -866l158 866h215l-250 -1413h-209l-151 893l-162 -893h-215zM385 1513l25 142l86 84h131l96 -97h25l18 19l12 78h133l-24 -140l-86 -86h-129l-99 99h-24l-19 -19l-12 -80h-133z" />
<glyph unicode="&#xd2;" d="M12 164l191 1085l164 164h385l163 -164l-190 -1085l-164 -164h-385zM274 250l43 -41h132l40 41l162 913l-43 41h-131l-41 -41zM438 1634l23 131h94l139 -137l-22 -131h-94z" />
<glyph unicode="&#xd3;" d="M12 164l191 1085l164 164h385l163 -164l-190 -1085l-164 -164h-385zM274 250l43 -41h132l40 41l162 913l-43 41h-131l-41 -41zM481 1497l25 131l137 137h123l-25 -131l-137 -137h-123z" />
<glyph unicode="&#xd4;" d="M12 164l191 1085l164 164h385l163 -164l-190 -1085l-164 -164h-385zM274 250l43 -41h132l40 41l162 913l-43 41h-131l-41 -41zM365 1505l20 115l131 131h176l131 -131l-20 -115h-74l-127 129h-6l-129 -129h-102z" />
<glyph unicode="&#xd5;" d="M12 164l191 1085l164 164h385l163 -164l-190 -1085l-164 -164h-385zM274 250l43 -41h132l40 41l162 913l-43 41h-131l-41 -41zM334 1513l24 142l86 84h131l97 -97h24l19 19l12 78h133l-24 -140l-86 -86h-129l-99 99h-24l-19 -19l-12 -80h-133z" />
<glyph unicode="&#xd6;" d="M12 164l191 1085l164 164h385l163 -164l-190 -1085l-164 -164h-385zM274 250l43 -41h132l40 41l162 913l-43 41h-131l-41 -41zM350 1526l35 194h172l-35 -194h-172zM633 1526l35 194h172l-35 -194h-172z" />
<glyph unicode="&#xd7;" horiz-adv-x="727" d="M61 526l183 183l-183 182l142 139l180 -182l182 182l142 -139l-183 -182l183 -183l-142 -141l-182 182l-180 -182z" />
<glyph unicode="&#xd8;" d="M12 164l191 1085l164 164h385l163 -164l-190 -1085l-164 -164h-385zM262 258l344 961h-141l-41 -41zM322 195h141l41 41l162 919z" />
<glyph unicode="&#xd9;" horiz-adv-x="849" d="M4 164l221 1249h248l-205 -1157l41 -39h123l39 39l205 1157h250l-221 -1249l-164 -164h-375zM455 1634l22 131h94l140 -137l-23 -131h-94z" />
<glyph unicode="&#xda;" horiz-adv-x="849" d="M4 164l221 1249h248l-205 -1157l41 -39h123l39 39l205 1157h250l-221 -1249l-164 -164h-375zM498 1497l24 131l137 137h123l-24 -131l-137 -137h-123z" />
<glyph unicode="&#xdb;" horiz-adv-x="849" d="M4 164l221 1249h248l-205 -1157l41 -39h123l39 39l205 1157h250l-221 -1249l-164 -164h-375zM379 1505l20 115l131 131h177l131 -131l-21 -115h-74l-127 129h-6l-129 -129h-102z" />
<glyph unicode="&#xdc;" horiz-adv-x="849" d="M4 164l221 1249h248l-205 -1157l41 -39h123l39 39l205 1157h250l-221 -1249l-164 -164h-375zM367 1526l34 194h172l-34 -194h-172zM649 1526l35 194h172l-35 -194h-172z" />
<glyph unicode="&#xdd;" horiz-adv-x="837" d="M156 1413h250l45 -678l288 678h240l-461 -981l-78 -432h-247l75 432zM492 1497l24 131l137 137h123l-24 -131l-138 -137h-122z" />
<glyph unicode="&#xde;" horiz-adv-x="870" d="M-6 0l250 1413h248l-43 -242h268l164 -163l-99 -557l-164 -164h-325l-51 -287h-248zM328 481h176l41 43l73 412l-40 41h-164z" />
<glyph unicode="&#xdf;" horiz-adv-x="858" d="M-29 0l226 1272l139 141h426l141 -141l-69 -398l-138 -137l97 -98l-86 -498l-142 -141h-276l33 176h122l39 39l70 395l-41 41h-106l30 176h111l53 54l55 317l-39 39h-159l-39 -39l-209 -1198h-238z" />
<glyph unicode="&#xe0;" horiz-adv-x="808" d="M-6 141l131 754l141 141h213l111 -112l53 112h158l-150 -856l4 -4h58l-33 -176h-135l-111 109l-108 -109h-193zM240 207l39 -37h51l98 98l94 525l-71 73h-62l-39 -37zM354 1247l23 131h94l139 -137l-22 -131h-94z" />
<glyph unicode="&#xe1;" horiz-adv-x="808" d="M-6 141l131 754l141 141h213l111 -112l53 112h158l-150 -856l4 -4h58l-33 -176h-135l-111 109l-108 -109h-193zM240 207l39 -37h51l98 98l94 525l-71 73h-62l-39 -37zM397 1110l25 131l137 137h123l-25 -131l-137 -137h-123z" />
<glyph unicode="&#xe2;" horiz-adv-x="808" d="M-6 141l131 754l141 141h213l111 -112l53 112h158l-150 -856l4 -4h58l-33 -176h-135l-111 109l-108 -109h-193zM240 207l39 -37h51l98 98l94 525l-71 73h-62l-39 -37zM281 1118l20 115l131 131h176l131 -131l-20 -115h-74l-127 129h-6l-129 -129h-102z" />
<glyph unicode="&#xe3;" horiz-adv-x="808" d="M-6 141l131 754l141 141h213l111 -112l53 112h158l-150 -856l4 -4h58l-33 -176h-135l-111 109l-108 -109h-193zM240 207l39 -37h51l98 98l94 525l-71 73h-62l-39 -37zM250 1126l24 142l86 84h132l96 -97h24l19 19l12 78h133l-24 -140l-86 -86h-129l-99 99h-24l-19 -19 l-12 -80h-133z" />
<glyph unicode="&#xe4;" horiz-adv-x="808" d="M-6 141l131 754l141 141h213l111 -112l53 112h158l-150 -856l4 -4h58l-33 -176h-135l-111 109l-108 -109h-193zM240 207l39 -37h51l98 98l94 525l-71 73h-62l-39 -37zM268 1139l35 194h172l-35 -194h-172zM551 1139l35 194h172l-35 -194h-172z" />
<glyph unicode="&#xe5;" horiz-adv-x="808" d="M-6 141l131 754l141 141h213l111 -112l53 112h158l-150 -856l4 -4h58l-33 -176h-135l-111 109l-108 -109h-193zM240 207l39 -37h51l98 98l94 525l-71 73h-62l-39 -37zM328 1174l24 139l72 71h201l71 -71l-24 -139l-72 -72h-201zM430 1200l21 -20h104l20 20l17 86l-21 23 h-102l-23 -23z" />
<glyph unicode="&#xe6;" horiz-adv-x="1177" d="M-23 141l56 318l145 145h293l41 225l-39 37h-84l-37 -37l-20 -112h-234l31 178l141 141h287l84 -86l86 86h297l141 -141l-80 -446h-407l-41 -242l39 -37h92l39 37l18 106h236l-29 -172l-141 -141h-311l-88 88l-91 -88h-284zM223 207l39 -37h80l64 61l38 218h-141l-45 -46 zM705 602h172l38 227l-36 37h-95l-39 -37z" />
<glyph unicode="&#xe7;" horiz-adv-x="761" d="M-6 141l133 754l139 141h352l140 -141l-39 -219h-236l27 153l-39 37h-82l-39 -37l-108 -622l39 -37h81l37 37l27 153h238l-39 -219l-140 -141h-147l-12 -68h69l70 -67l-27 -144l-65 -67h-254l18 100h154l12 10l10 66l-10 12h-74l-34 35l22 123h-84z" />
<glyph unicode="&#xe8;" horiz-adv-x="782" d="M-6 141l133 754l141 141h361l139 -141l-78 -449h-407l-41 -239l39 -37h92l39 37l18 106h236l-31 -172l-139 -141h-363zM311 606h170l39 223l-39 37h-92l-39 -37zM334 1247l22 131h95l139 -137l-23 -131h-94z" />
<glyph unicode="&#xe9;" horiz-adv-x="782" d="M-6 141l133 754l141 141h361l139 -141l-78 -449h-407l-41 -239l39 -37h92l39 37l18 106h236l-31 -172l-139 -141h-363zM311 606h170l39 223l-39 37h-92l-39 -37zM377 1110l24 131l138 137h123l-25 -131l-137 -137h-123z" />
<glyph unicode="&#xea;" horiz-adv-x="782" d="M-6 141l133 754l141 141h361l139 -141l-78 -449h-407l-41 -239l39 -37h92l39 37l18 106h236l-31 -172l-139 -141h-363zM258 1118l21 115l131 131h176l131 -131l-21 -115h-73l-127 129h-7l-129 -129h-102zM311 606h170l39 223l-39 37h-92l-39 -37z" />
<glyph unicode="&#xeb;" horiz-adv-x="782" d="M-6 141l133 754l141 141h361l139 -141l-78 -449h-407l-41 -239l39 -37h92l39 37l18 106h236l-31 -172l-139 -141h-363zM246 1139l35 194h172l-35 -194h-172zM311 606h170l39 223l-39 37h-92l-39 -37zM528 1139l35 194h172l-35 -194h-172z" />
<glyph unicode="&#xec;" horiz-adv-x="425" d="M-2 94l166 942h237l-153 -856l6 -4h55l-33 -176h-184zM162 1247l22 131h95l139 -137l-23 -131h-94z" />
<glyph unicode="&#xed;" horiz-adv-x="425" d="M-2 94l166 942h237l-153 -856l6 -4h55l-33 -176h-184zM205 1110l24 131l138 137h122l-24 -131l-137 -137h-123z" />
<glyph unicode="&#xee;" horiz-adv-x="425" d="M-2 94l166 942h237l-153 -856l6 -4h55l-33 -176h-184zM88 1118l21 115l131 131h176l131 -131l-21 -115h-73l-127 129h-7l-129 -129h-102z" />
<glyph unicode="&#xef;" horiz-adv-x="425" d="M-2 94l166 942h237l-153 -856l6 -4h55l-33 -176h-184zM76 1139l35 194h172l-35 -194h-172zM358 1139l35 194h172l-35 -194h-172z" />
<glyph unicode="&#xf0;" horiz-adv-x="802" d="M-6 141l131 754l141 141h185l98 -100l29 170l-244 246v61h217l203 -203l98 101h63l-34 -199l-78 -78l-158 -893l-141 -141h-371zM240 207l39 -37h104l39 37l100 577l-82 82h-51l-39 -37z" />
<glyph unicode="&#xf1;" horiz-adv-x="804" d="M-29 0l185 1036h161l-6 -143l144 143h159l152 -153l-123 -703l4 -4h58l-31 -176h-187l-94 96l121 701l-35 34h-39l-104 -104l-127 -727h-238zM233 1126l25 142l86 84h131l96 -97h25l18 19l13 78h133l-25 -140l-86 -86h-129l-98 99h-25l-18 -19l-12 -80h-134z" />
<glyph unicode="&#xf2;" horiz-adv-x="802" d="M-6 141l133 754l139 141h373l141 -141l-133 -754l-141 -141h-373zM240 207l39 -37h106l37 37l108 622l-36 37h-107l-39 -37zM336 1247l22 131h95l139 -137l-23 -131h-94z" />
<glyph unicode="&#xf3;" horiz-adv-x="802" d="M-6 141l133 754l139 141h373l141 -141l-133 -754l-141 -141h-373zM240 207l39 -37h106l37 37l108 622l-36 37h-107l-39 -37zM379 1110l24 131l138 137h123l-25 -131l-137 -137h-123z" />
<glyph unicode="&#xf4;" horiz-adv-x="802" d="M-6 141l133 754l139 141h373l141 -141l-133 -754l-141 -141h-373zM240 207l39 -37h106l37 37l108 622l-36 37h-107l-39 -37zM262 1118l21 115l131 131h176l131 -131l-21 -115h-73l-127 129h-6l-129 -129h-103z" />
<glyph unicode="&#xf5;" horiz-adv-x="802" d="M-6 141l133 754l139 141h373l141 -141l-133 -754l-141 -141h-373zM231 1126l25 142l86 84h131l96 -97h25l18 19l13 78h133l-25 -140l-86 -86h-129l-98 99h-25l-18 -19l-12 -80h-134zM240 207l39 -37h106l37 37l108 622l-36 37h-107l-39 -37z" />
<glyph unicode="&#xf6;" horiz-adv-x="802" d="M-6 141l133 754l139 141h373l141 -141l-133 -754l-141 -141h-373zM240 207l39 -37h106l37 37l108 622l-36 37h-107l-39 -37zM250 1139l35 194h172l-35 -194h-172zM532 1139l35 194h172l-34 -194h-173z" />
<glyph unicode="&#xf7;" horiz-adv-x="679" d="M49 604l35 205h594l-35 -205h-594zM197 315l34 191h195l-35 -191h-194zM301 905l35 191h192l-32 -191h-195z" />
<glyph unicode="&#xf8;" horiz-adv-x="802" d="M-6 141l133 754l141 141h371l141 -141l-133 -754l-141 -141h-371zM229 219l273 662h-125l-39 -39zM272 156h125l39 39l109 622z" />
<glyph unicode="&#xf9;" horiz-adv-x="786" d="M-6 152l156 884h235l-141 -796l37 -35h32l107 104l127 727h235l-147 -856l4 -4h57l-30 -176h-138l-116 115l-115 -115h-152zM342 1247l23 131h94l139 -137l-23 -131h-94z" />
<glyph unicode="&#xfa;" horiz-adv-x="786" d="M-6 152l156 884h235l-141 -796l37 -35h32l107 104l127 727h235l-147 -856l4 -4h57l-30 -176h-138l-116 115l-115 -115h-152zM385 1110l25 131l137 137h123l-25 -131l-137 -137h-123z" />
<glyph unicode="&#xfb;" horiz-adv-x="786" d="M-6 152l156 884h235l-141 -796l37 -35h32l107 104l127 727h235l-147 -856l4 -4h57l-30 -176h-138l-116 115l-115 -115h-152zM266 1118l21 115l131 131h176l131 -131l-20 -115h-74l-127 129h-6l-129 -129h-103z" />
<glyph unicode="&#xfc;" horiz-adv-x="786" d="M-6 152l156 884h235l-141 -796l37 -35h32l107 104l127 727h235l-147 -856l4 -4h57l-30 -176h-138l-116 115l-115 -115h-152zM254 1139l35 194h172l-35 -194h-172zM537 1139l34 194h172l-34 -194h-172z" />
<glyph unicode="&#xfd;" horiz-adv-x="741" d="M-104 -348l34 190h207l49 49l39 109h-143l8 1036h240l-39 -886l282 886h224l-424 -1241l-144 -143h-333zM369 1110l24 131l137 137h123l-24 -131l-137 -137h-123z" />
<glyph unicode="&#xfe;" horiz-adv-x="804" d="M-88 -348l309 1761h238l-88 -495l118 118h152l141 -141l-131 -754l-141 -141h-197l-88 86l-75 -434h-238zM254 248l80 -78h53l39 37l106 606l-38 39h-39l-115 -115z" />
<glyph unicode="&#xff;" horiz-adv-x="741" d="M-104 -348l34 190h207l49 49l39 109h-143l8 1036h240l-39 -886l282 886h224l-424 -1241l-144 -143h-333zM240 1139l34 194h172l-34 -194h-172zM522 1139l35 194h172l-35 -194h-172z" />
<glyph unicode="&#x152;" horiz-adv-x="1200" d="M12 164l191 1085l164 164h915l-37 -217h-346l-65 -369h313l-37 -219h-315l-70 -391h354l-39 -217h-864zM274 250l43 -41h158l178 995h-176l-41 -41z" />
<glyph unicode="&#x153;" horiz-adv-x="1198" d="M-6 141l133 754l139 141h301l88 -88l88 88h301l142 -141l-80 -449h-408l-41 -239l39 -37h92l39 37l19 106h235l-28 -172l-142 -141h-299l-90 88l-88 -88h-301zM240 207l39 -37h106l37 37l108 622l-36 37h-107l-39 -37zM727 606h170l39 223l-37 37h-94l-39 -37z" />
<glyph unicode="&#x178;" horiz-adv-x="837" d="M156 1413h250l45 -678l288 678h240l-461 -981l-78 -432h-247l75 432zM360 1526l35 194h172l-35 -194h-172zM643 1526l35 194h172l-35 -194h-172z" />
<glyph unicode="&#x2c6;" horiz-adv-x="688" d="M193 1118l20 115l131 131h176l131 -131l-20 -115h-74l-127 129h-6l-129 -129h-102z" />
<glyph unicode="&#x2dc;" horiz-adv-x="688" d="M172 1126l25 142l86 84h131l96 -97h25l18 19l12 78h133l-24 -140l-86 -86h-129l-99 99h-24l-19 -19l-12 -80h-133z" />
<glyph unicode="&#x2000;" horiz-adv-x="886" />
<glyph unicode="&#x2001;" horiz-adv-x="1772" />
<glyph unicode="&#x2002;" horiz-adv-x="886" />
<glyph unicode="&#x2003;" horiz-adv-x="1772" />
<glyph unicode="&#x2004;" horiz-adv-x="590" />
<glyph unicode="&#x2005;" horiz-adv-x="443" />
<glyph unicode="&#x2006;" horiz-adv-x="295" />
<glyph unicode="&#x2007;" horiz-adv-x="295" />
<glyph unicode="&#x2008;" horiz-adv-x="221" />
<glyph unicode="&#x2009;" horiz-adv-x="354" />
<glyph unicode="&#x200a;" horiz-adv-x="98" />
<glyph unicode="&#x2010;" horiz-adv-x="456" d="M41 600l39 215h385l-39 -215h-385z" />
<glyph unicode="&#x2011;" horiz-adv-x="456" d="M41 600l39 215h385l-39 -215h-385z" />
<glyph unicode="&#x2012;" horiz-adv-x="456" d="M41 600l39 215h385l-39 -215h-385z" />
<glyph unicode="&#x2013;" horiz-adv-x="628" d="M41 600l39 215h557l-39 -215h-557z" />
<glyph unicode="&#x2014;" horiz-adv-x="835" d="M41 600l39 215h764l-39 -215h-764z" />
<glyph unicode="&#x2018;" horiz-adv-x="323" d="M102 932l70 389l92 92h166l-18 -110h-78l-23 -25l-14 -78h96l-49 -268h-242z" />
<glyph unicode="&#x2019;" horiz-adv-x="323" d="M102 932l19 110h78l22 25l15 80h-97l49 266h242l-70 -387l-92 -94h-166z" />
<glyph unicode="&#x201a;" horiz-adv-x="323" d="M-100 -213l18 111h76l24 22l15 80h-96l49 266h241l-69 -387l-92 -92h-166z" />
<glyph unicode="&#x201c;" horiz-adv-x="645" d="M102 932l70 389l92 92h166l-18 -110h-76l-25 -25l-14 -78h96l-47 -268h-244zM424 932l70 389l92 92h166l-19 -110h-78l-22 -25l-15 -78h97l-49 -268h-242z" />
<glyph unicode="&#x201d;" horiz-adv-x="645" d="M102 932l21 110h76l24 25l15 80h-97l47 266h242l-68 -387l-94 -94h-166zM424 932l18 110h78l23 25l14 80h-96l49 266h242l-70 -387l-92 -94h-166z" />
<glyph unicode="&#x201e;" horiz-adv-x="645" d="M-100 -213l20 111h76l22 22l15 80h-96l49 266h241l-69 -387l-92 -92h-166zM221 -213l19 111h75l25 22l14 80h-96l49 266h242l-70 -387l-92 -92h-166z" />
<glyph unicode="&#x2022;" horiz-adv-x="473" d="M51 590l41 225l98 98h193l98 -98l-41 -225l-98 -98h-192z" />
<glyph unicode="&#x2026;" horiz-adv-x="1032" d="M-37 0l51 283h238l-49 -283h-240zM307 0l51 283h238l-49 -283h-240zM651 0l51 283h238l-49 -283h-240z" />
<glyph unicode="&#x202f;" horiz-adv-x="354" />
<glyph unicode="&#x2039;" horiz-adv-x="415" d="M37 713l264 411h203l-273 -419l119 -404h-194z" />
<glyph unicode="&#x203a;" horiz-adv-x="415" d="M-35 301l273 422l-119 401h194l119 -409l-264 -414h-203z" />
<glyph unicode="&#x205f;" horiz-adv-x="443" />
<glyph unicode="&#x20ac;" horiz-adv-x="843" d="M4 518l25 137h77l19 113h-76l23 139h78l61 342l164 164h370l164 -164l-43 -245h-250l29 159l-41 41h-117l-41 -41l-45 -256h344l-24 -139h-344l-21 -113h344l-24 -137h-344l-47 -268l41 -41h116l41 41l29 160h250l-45 -246l-162 -164h-371l-164 164l62 354h-78z" />
<glyph unicode="&#x2122;" horiz-adv-x="1011" d="M184 1313l19 100h319l-18 -100h-101l-86 -486h-118l86 486h-101zM446 827l105 586h182l-16 -463l147 463h180l-104 -586h-109l87 488l-164 -488h-129l10 486l-86 -486h-103z" />
<glyph unicode="&#x25fc;" horiz-adv-x="1034" d="M0 0v1034h1034v-1034h-1034z" />
<glyph unicode="&#xfb01;" horiz-adv-x="987" d="M23 0l149 846h-102l34 190h101l43 236l143 141h309l-32 -190h-168l-29 -29l-29 -158h174l-32 -190h-174l-150 -846h-237zM559 94l166 942h238l-154 -856l6 -4h55l-32 -176h-185zM750 1176l41 229h237l-41 -229h-237z" />
<glyph unicode="&#xfb02;" horiz-adv-x="989" d="M23 0l149 846h-102l34 190h101l43 236l143 141h309l-32 -190h-168l-29 -29l-29 -158h174l-32 -190h-174l-150 -846h-237zM559 94l234 1319h235l-217 -1233l4 -4h57l-32 -176h-187z" />
</font>
</defs>
</svg>
